<?xml version="1.0" encoding="UTF-8"?>
<svg xmlns="http://www.w3.org/2000/svg" width="198" height="47" viewBox="0 0 198 47" fill="none">
  <path fill-rule="evenodd" clip-rule="evenodd" d="M77.5163 10.0144H77.0194C70.0409 10.2409 66.4165 15.4802 62.1271 20.493C61.8244 17.9342 60.6999 15.5425 58.9226 13.6769C57.1453 11.8112 54.8108 10.5723 52.2696 10.1459C50.3781 10.0304 48.4825 10.294 46.6943 10.9215C44.9061 11.5489 43.2614 12.5274 41.8568 13.7996C39.6746 15.8055 37.6562 17.9827 35.8209 20.3104C33.5776 22.9483 28.8717 28.0561 25.3716 28.8599C25.0067 28.9409 24.6346 28.985 24.2608 28.9914H24.1585C23.3422 28.9948 22.5364 28.8071 21.8056 28.4433C19.7961 27.4642 18.3931 25.2208 18.3931 22.3125C18.3931 18.2716 20.9799 15.4583 24.1585 15.4583C27.3372 15.4583 29.924 18.2716 29.924 22.3125C29.9236 22.7182 29.8968 23.1234 29.8436 23.5256C31.7504 21.7266 33.5303 19.7977 35.1706 17.7528C34.3599 15.4789 32.8673 13.5106 30.8965 12.1165C28.9256 10.7224 26.5726 9.97046 24.1585 9.96325C17.6624 9.96325 12.4011 15.2756 12.4011 22.2687C12.384 24.4307 12.9198 26.5612 13.9576 28.458H10.1578C7.48334 28.458 6.1242 27.2888 6.1242 24.1321V2.32715L0.0883789 5.98079V24.1759C0.0883789 30.4529 3.55932 33.975 10.1943 33.975H20.5049C21.6848 34.3584 22.9179 34.5532 24.1585 34.5522C27.5345 34.5522 30.3697 32.6304 32.9273 30.5771C35.0794 28.8037 37.0744 26.8479 38.89 24.7313C41.411 21.9106 46.2411 15.4949 50.4282 15.4949C50.9459 15.4912 51.4611 15.5676 51.9554 15.7214C54.3961 16.4521 56.1936 18.9804 56.1936 22.3491C56.252 24.2078 55.5745 26.0144 54.3084 27.3765C54.6007 27.2157 54.8783 27.0477 55.1633 26.8796C54.8856 27.0477 54.6007 27.2157 54.3084 27.3765C53.8057 27.8983 53.203 28.3135 52.5364 28.5972C51.8697 28.8809 51.1527 29.0274 50.4282 29.0279C47.2495 29.0279 44.6628 26.3023 44.6628 22.3491C44.6606 21.9161 44.6923 21.4837 44.7578 21.0557C43.0625 22.6852 41.3599 24.7093 39.4746 26.8504C40.2684 29.1157 41.7533 31.0748 43.7198 32.4513C45.6863 33.8279 48.0353 34.5525 50.4355 34.523C61.7545 34.2234 69.5659 17.329 76.011 16.0064C76.4875 15.8774 76.9788 15.8111 77.4724 15.8091C79.109 15.8606 80.6584 16.5586 81.7815 17.7501C82.9045 18.9417 83.5097 20.5297 83.4644 22.1664C83.4738 22.9677 83.3205 23.7625 83.014 24.5029C82.7074 25.2433 82.2539 25.9138 81.6808 26.4739C81.1077 27.034 80.427 27.472 79.6798 27.7616C78.9326 28.0511 78.1344 28.1861 77.3336 28.1584H73.8845L71.5389 31.6805V25.7616V22.2541C69.5075 24.3586 67.6003 26.58 65.5396 28.6699V41.7864L71.5389 44.3878V36.4083V33.9896H78.1155C84.6555 33.9896 89.5148 28.721 89.5148 22.181C89.5148 15.641 84.597 10.0144 77.5163 10.0144Z" fill="#62BC56"></path>
  <path d="M99.582 0H98.5151V46.7154H99.582V0Z" fill="white"></path>
  <path d="M190.759 20.457C190.759 20.2031 190.819 19.9527 190.934 19.7263C191.051 19.4946 191.218 19.2922 191.424 19.1344C191.657 18.9627 191.916 18.8294 192.191 18.7398C192.518 18.6396 192.858 18.5903 193.2 18.5937C193.778 18.5928 194.352 18.6942 194.895 18.8933C195.483 19.1163 196.029 19.4375 196.51 19.8432L197.241 18.8421C196.69 18.4 196.074 18.0473 195.414 17.7972C194.71 17.5511 193.967 17.4323 193.222 17.4464C192.707 17.4409 192.196 17.5225 191.709 17.6876C191.275 17.8326 190.872 18.0555 190.518 18.3452C190.179 18.6133 189.907 18.9558 189.722 19.3461C189.537 19.7364 189.444 20.164 189.451 20.5959C189.439 21.0331 189.516 21.4681 189.678 21.8746C189.845 22.2348 190.096 22.5503 190.408 22.7954C190.772 23.0817 191.179 23.3086 191.614 23.4676C192.174 23.6732 192.748 23.8368 193.331 23.9572C193.826 24.0635 194.314 24.2002 194.793 24.3664C195.12 24.4758 195.429 24.6361 195.706 24.8414C195.907 24.9933 196.066 25.1947 196.167 25.426C196.258 25.6586 196.302 25.9069 196.298 26.1567C196.301 26.4357 196.236 26.7113 196.109 26.9596C195.982 27.2078 195.796 27.4214 195.567 27.5816C195.026 27.9688 194.369 28.1595 193.704 28.1224C192.98 28.1373 192.26 28.0004 191.592 27.7205C190.923 27.4167 190.308 27.0044 189.773 26.5002L188.976 27.4501C189.615 28.0404 190.359 28.5063 191.168 28.8239C191.97 29.1309 192.823 29.2822 193.682 29.2696C194.214 29.2755 194.744 29.1991 195.253 29.0431C195.701 28.9046 196.117 28.6813 196.481 28.3854C196.821 28.1024 197.096 27.7482 197.285 27.3478C197.485 26.9283 197.585 26.468 197.577 26.0033C197.596 25.6098 197.525 25.2171 197.368 24.8559C197.21 24.4946 196.972 24.1746 196.671 23.9207C195.831 23.3173 194.863 22.9148 193.843 22.7442C193.314 22.6434 192.793 22.5017 192.286 22.3204C191.946 22.2089 191.625 22.0436 191.336 21.8308C191.128 21.6768 190.964 21.4699 190.861 21.2316C190.771 20.9987 190.727 20.7506 190.73 20.5009L190.759 20.457ZM183.686 18.8421H187.537V17.6072H178.549V18.7983H182.392V29.0723H183.686V18.8421ZM174.888 26.7924L167.668 17.6072H166.455V29.0723H167.756V19.6825L175.158 29.0869H176.188V17.6072H174.924L174.888 26.7924ZM163.773 17.6072H155.487V29.0723H163.854V27.8885H156.795V23.8768H163.05V22.7004H156.795V18.7837H163.788L163.773 17.6072ZM150.949 19.7994V29.0723H152.243V17.6072H150.949L146.769 23.8622L142.597 17.6072H141.282V29.0723H142.546V19.7994L146.718 25.9229H146.784L150.949 19.7994ZM134.42 24.5345L139.192 17.6218H137.679L133.792 23.3361L129.933 17.6072H128.362L133.127 24.5345V29.0723H134.42V24.5345ZM125.841 24.9072H120.617L123.24 19.0613L125.841 24.9072ZM123.861 17.5414H122.648L117.423 29.0869H118.753L120.112 26.0544H126.346L127.69 29.0869H129.086L123.861 17.5414ZM115.874 21.3047C115.877 21.6655 115.8 22.0224 115.648 22.3496C115.501 22.6614 115.283 22.9342 115.012 23.1461C114.713 23.3832 114.37 23.5595 114.004 23.6649C113.586 23.7885 113.153 23.8501 112.717 23.8476H109.875V18.7983H112.798C113.595 18.7595 114.383 18.9828 115.041 19.434C115.322 19.6545 115.544 19.9401 115.69 20.2661C115.835 20.5921 115.898 20.9486 115.874 21.3047ZM117.168 21.2608C117.177 20.7332 117.073 20.2096 116.861 19.7263C116.666 19.2801 116.368 18.8867 115.991 18.5791C115.59 18.2498 115.128 18.0017 114.632 17.8483C114.063 17.6687 113.468 17.5824 112.871 17.5926H108.582V29.0723H109.875V25.0241H112.659C113.251 25.03 113.841 24.9537 114.413 24.7976C114.942 24.6492 115.438 24.4012 115.874 24.0668C116.282 23.752 116.614 23.35 116.846 22.8904C117.091 22.3827 117.211 21.8241 117.197 21.2608H117.168Z" fill="white"></path>
</svg>
