<svg width="228" height="46" viewBox="0 0 228 46" fill="none" xmlns="http://www.w3.org/2000/svg">
<path d="M29.1256 39.2308C24.8069 40.8787 20.9706 41.2488 20.5569 40.0573C20.1433 38.8658 23.3089 36.5641 27.6276 34.9162C31.9463 33.2683 35.7826 32.8982 36.1962 34.0897C36.6099 35.2812 33.4442 37.5829 29.1256 39.2308ZM27.6725 35.0456C23.613 36.5946 20.6373 38.7583 21.0261 39.8783C21.4149 40.9982 25.0211 40.6504 29.0806 39.1014C33.1402 37.5524 36.1159 35.3887 35.7271 34.2687C35.3382 33.1488 31.7321 33.4966 27.6725 35.0456Z" fill="url(#paint0_linear_4088_45383)"/>
<path d="M27.4945 35.9459C20.6755 38.5478 14.6782 39.3049 14.0991 37.6369C13.5199 35.9688 18.5783 32.5073 25.3973 29.9053C32.2163 27.3034 38.2136 26.5463 38.7927 28.2144C39.3718 29.8824 34.3134 33.3439 27.4945 35.9459ZM25.4602 30.0866C19.0504 32.5324 14.2955 35.7862 14.8399 37.3542C15.3842 38.9222 21.0217 38.2105 27.4315 35.7647C33.8414 33.3188 38.5963 30.065 38.0519 28.497C37.5075 26.9291 31.8701 27.6407 25.4602 30.0866Z" fill="url(#paint1_linear_4088_45383)"/>
<path d="M26.6078 33.3527C17.9704 36.6485 10.3649 37.5817 9.62031 35.437C8.87574 33.2924 15.2741 28.882 23.9115 25.5862C32.5488 22.2904 40.1544 21.3572 40.8989 23.5019C41.6435 25.6465 35.2451 30.0569 26.6078 33.3527ZM23.9924 25.8192C15.8732 28.9173 9.85878 33.063 10.5587 35.079C11.2586 37.0949 18.4078 36.2177 26.5269 33.1197C34.646 30.0216 40.6605 25.8759 39.9606 23.8599C39.2607 21.844 32.1115 22.7212 23.9924 25.8192Z" fill="url(#paint2_linear_4088_45383)"/>
<path d="M25.1217 29.0345C15.5752 32.6773 7.23255 33.8917 6.48798 31.7471C5.74342 29.6024 12.8788 24.9108 22.4254 21.2681C31.9719 17.6254 40.3145 16.4109 41.0591 18.5556C41.8037 20.7002 34.6683 25.3918 25.1217 29.0345ZM22.5063 21.5011C13.5325 24.9253 6.82522 29.3354 7.52512 31.3513C8.22501 33.3673 16.0671 32.2257 25.0408 28.8015C34.0146 25.3774 40.7219 20.9673 40.022 18.9513C39.3221 16.9354 31.48 18.0769 22.5063 21.5011Z" fill="url(#paint3_linear_4088_45383)"/>
<path d="M20.5834 16.1078C30.1299 12.4651 38.4725 11.2506 39.2171 13.3953C39.9617 15.5399 32.8262 20.2315 23.2797 23.8742C13.7331 27.517 5.39055 28.7314 4.64598 26.5868C3.90141 24.4421 11.0368 19.7505 20.5834 16.1078ZM23.1988 23.6412C32.1726 20.2171 38.8799 15.807 38.18 13.791C37.4801 11.775 29.638 12.9166 20.6643 16.3408C11.6905 19.765 4.98322 24.1751 5.68311 26.191C6.38301 28.207 14.2251 27.0654 23.1988 23.6412Z" fill="url(#paint4_linear_4088_45383)"/>
<path d="M19.0817 11.7894C27.719 8.49363 35.3246 7.56042 36.0691 9.70506C36.8137 11.8497 30.4153 16.2601 21.778 19.5559C13.1406 22.8517 5.53508 23.7849 4.79051 21.6402C4.04594 19.4956 10.4443 15.0852 19.0817 11.7894ZM21.6971 19.3229C29.8162 16.2248 35.8307 12.0791 35.1308 10.0631C34.4309 8.04715 27.2817 8.92437 19.1626 12.0224C11.0434 15.1205 5.02897 19.2662 5.72887 21.2822C6.42876 23.2981 13.578 22.4209 21.6971 19.3229Z" fill="url(#paint5_linear_4088_45383)"/>
<path d="M18.1852 9.20132C25.0042 6.59937 31.0015 5.8423 31.5806 7.51035C32.1597 9.1784 27.1013 12.6399 20.2824 15.2419C13.4634 17.8438 7.46609 18.6009 6.88698 16.9328C6.30787 15.2648 11.3663 11.8033 18.1852 9.20132ZM20.2195 15.0607C26.6293 12.6148 31.3842 9.36099 30.8398 7.79303C30.2955 6.22506 24.658 6.93671 18.2481 9.38254C11.8383 11.8284 7.08342 15.0822 7.62779 16.6502C8.17215 18.2181 13.8096 17.5065 20.2195 15.0607Z" fill="url(#paint6_linear_4088_45383)"/>
<path d="M17.7416 6.44054C22.0603 4.79264 25.8966 4.42263 26.3103 5.61409C26.7239 6.80556 23.5583 9.10732 19.2396 10.7552C14.9209 12.4031 11.0846 12.7731 10.6709 11.5817C10.2573 10.3902 13.4229 8.08844 17.7416 6.44054ZM19.1946 10.6258C23.2542 9.07675 26.2299 6.9131 25.8411 5.79312C25.4522 4.67314 21.8461 5.02095 17.7866 6.56998C13.727 8.11901 10.7513 10.2827 11.1401 11.4026C11.529 12.5226 15.1351 12.1748 19.1946 10.6258Z" fill="url(#paint7_linear_4088_45383)"/>
<path d="M69.0298 30.7453C67.9531 30.7453 66.9445 30.5545 66.004 30.1729C65.0636 29.7776 64.239 29.2256 63.5302 28.5169C62.8351 27.8081 62.2899 26.9767 61.8947 26.0227C61.4994 25.055 61.3018 24.0055 61.3018 22.8742C61.3018 21.7293 61.4994 20.6799 61.8947 19.7258C62.2899 18.7717 62.8351 17.9403 63.5302 17.2316C64.239 16.5228 65.0568 15.9776 65.9836 15.596C66.924 15.2144 67.9394 15.0236 69.0298 15.0236C70.1202 15.0236 71.1288 15.2212 72.0556 15.6164C72.996 15.9981 73.8138 16.5433 74.5089 17.252C75.2177 17.9471 75.7697 18.7717 76.1649 19.7258C76.5738 20.6799 76.7782 21.7293 76.7782 22.8742C76.7782 24.0055 76.5738 25.055 76.1649 26.0227C75.7697 26.9767 75.2177 27.8081 74.5089 28.5169C73.8138 29.2256 72.996 29.7776 72.0556 30.1729C71.1288 30.5545 70.1202 30.7453 69.0298 30.7453ZM69.0298 28.8849C69.8748 28.8849 70.6449 28.735 71.34 28.4351C72.0351 28.1216 72.6348 27.6923 73.1391 27.1471C73.6571 26.5883 74.0523 25.9477 74.3249 25.2253C74.6111 24.4893 74.7542 23.7056 74.7542 22.8742C74.7542 22.0428 74.6111 21.2659 74.3249 20.5436C74.0523 19.8212 73.6571 19.1874 73.1391 18.6422C72.6348 18.0834 72.0351 17.6541 71.34 17.3542C70.6449 17.0407 69.8748 16.884 69.0298 16.884C68.1984 16.884 67.4351 17.0407 66.74 17.3542C66.0449 17.6541 65.4384 18.0834 64.9205 18.6422C64.4162 19.1874 64.0209 19.8212 63.7347 20.5436C63.4485 21.2659 63.3054 22.0428 63.3054 22.8742C63.3054 23.7056 63.4485 24.4893 63.7347 25.2253C64.0209 25.9477 64.4162 26.5883 64.9205 27.1471C65.4384 27.6923 66.0449 28.1216 66.74 28.4351C67.4351 28.735 68.1984 28.8849 69.0298 28.8849ZM79.0666 30.5V19.4804H80.927V21.6271L80.6204 21.4431C80.893 20.748 81.3291 20.2096 81.9288 19.828C82.5421 19.4327 83.2577 19.2351 84.0755 19.2351C84.866 19.2351 85.5679 19.4123 86.1813 19.7667C86.8082 20.121 87.2989 20.6117 87.6533 21.2387C88.0213 21.8656 88.2053 22.5744 88.2053 23.3649V30.5H86.2835V23.9782C86.2835 23.3649 86.1744 22.847 85.9564 22.4244C85.7383 22.0019 85.4248 21.6748 85.0159 21.4431C84.6207 21.1978 84.1641 21.0751 83.6461 21.0751C83.1282 21.0751 82.6648 21.1978 82.2559 21.4431C81.8607 21.6748 81.5472 22.0087 81.3155 22.4449C81.0838 22.8674 80.9679 23.3785 80.9679 23.9782V30.5H79.0666ZM96.2211 30.7453C95.3351 30.7453 94.5242 30.5477 93.7882 30.1524C93.0658 29.7572 92.507 29.1984 92.1117 28.476L92.3775 28.1489V30.5H90.5171V15.0236H92.4184V21.852L92.1322 21.3818C92.5411 20.7276 93.0999 20.2096 93.8086 19.828C94.5174 19.4327 95.3283 19.2351 96.2415 19.2351C97.2774 19.2351 98.2042 19.4873 99.022 19.9916C99.8534 20.4959 100.508 21.1841 100.985 22.0564C101.462 22.9151 101.7 23.8964 101.7 25.0004C101.7 26.0772 101.462 27.0517 100.985 27.924C100.508 28.7963 99.8534 29.4846 99.022 29.9889C98.2042 30.4932 97.2706 30.7453 96.2211 30.7453ZM96.078 28.9053C96.7731 28.9053 97.3932 28.735 97.9384 28.3942C98.4836 28.0535 98.9061 27.5901 99.206 27.004C99.5194 26.4043 99.6762 25.7364 99.6762 25.0004C99.6762 24.2372 99.5194 23.5693 99.206 22.9969C98.9061 22.4108 98.4836 21.9474 97.9384 21.6067C97.3932 21.2523 96.7731 21.0751 96.078 21.0751C95.3828 21.0751 94.7559 21.2455 94.1971 21.5862C93.6519 21.927 93.2157 22.3972 92.8886 22.9969C92.5751 23.583 92.4184 24.2508 92.4184 25.0004C92.4184 25.7364 92.5751 26.4043 92.8886 27.004C93.2157 27.5901 93.6519 28.0535 94.1971 28.3942C94.7559 28.735 95.3828 28.9053 96.078 28.9053ZM109.018 30.7453C107.955 30.7453 106.994 30.5 106.136 30.0093C105.277 29.505 104.595 28.8167 104.091 27.9444C103.587 27.0721 103.335 26.084 103.335 24.98C103.335 23.876 103.58 22.8947 104.071 22.036C104.575 21.1773 105.256 20.4959 106.115 19.9916C106.974 19.4873 107.941 19.2351 109.018 19.2351C110.081 19.2351 111.042 19.4873 111.901 19.9916C112.76 20.4822 113.434 21.1569 113.925 22.0156C114.429 22.8742 114.681 23.8624 114.681 24.98C114.681 26.0976 114.422 27.0926 113.904 27.9649C113.386 28.8236 112.698 29.505 111.84 30.0093C110.994 30.5 110.054 30.7453 109.018 30.7453ZM109.018 28.9053C109.7 28.9053 110.313 28.735 110.858 28.3942C111.417 28.0535 111.853 27.5833 112.167 26.9836C112.494 26.3839 112.657 25.716 112.657 24.98C112.657 24.2304 112.494 23.5693 112.167 22.9969C111.853 22.4108 111.417 21.9474 110.858 21.6067C110.313 21.2523 109.7 21.0751 109.018 21.0751C108.323 21.0751 107.696 21.2523 107.137 21.6067C106.592 21.9474 106.156 22.4108 105.829 22.9969C105.502 23.5693 105.338 24.2304 105.338 24.98C105.338 25.716 105.502 26.3839 105.829 26.9836C106.156 27.5833 106.592 28.0535 107.137 28.3942C107.696 28.735 108.323 28.9053 109.018 28.9053ZM119.982 30.7453C119.26 30.7453 118.62 30.6159 118.061 30.3569C117.516 30.0843 117.086 29.7163 116.773 29.2529C116.459 28.7759 116.302 28.2307 116.302 27.6173C116.302 27.0313 116.425 26.5065 116.67 26.0431C116.929 25.5661 117.325 25.164 117.856 24.8369C118.401 24.5098 119.083 24.2781 119.901 24.1418L123.99 23.4671V25.0618L120.33 25.6751C119.621 25.7978 119.103 26.0227 118.776 26.3498C118.463 26.6769 118.306 27.079 118.306 27.556C118.306 28.0058 118.483 28.3806 118.838 28.6804C119.206 28.9803 119.662 29.1302 120.207 29.1302C120.902 29.1302 121.502 28.9871 122.006 28.7009C122.524 28.401 122.926 27.999 123.213 27.4947C123.513 26.9904 123.662 26.4316 123.662 25.8182V23.0173C123.662 22.4176 123.438 21.9338 122.988 21.5658C122.552 21.1841 121.972 20.9933 121.25 20.9933C120.623 20.9933 120.064 21.1569 119.574 21.484C119.097 21.7975 118.742 22.22 118.51 22.7516L116.854 21.8929C117.059 21.3886 117.386 20.9388 117.836 20.5436C118.286 20.1347 118.81 19.8144 119.41 19.5827C120.01 19.351 120.637 19.2351 121.291 19.2351C122.136 19.2351 122.879 19.3987 123.519 19.7258C124.16 20.0393 124.657 20.4822 125.012 21.0547C125.38 21.6135 125.564 22.2677 125.564 23.0173V30.5H123.703V28.4147L124.051 28.5373C123.819 28.9735 123.506 29.3551 123.11 29.6822C122.715 30.0093 122.252 30.2683 121.72 30.4591C121.189 30.6499 120.609 30.7453 119.982 30.7453ZM128.103 30.5V19.4804H129.963V21.5044L129.759 21.2182C130.018 20.5913 130.413 20.1279 130.945 19.828C131.476 19.5145 132.124 19.3578 132.887 19.3578H133.562V21.1569H132.601C131.824 21.1569 131.197 21.4022 130.72 21.8929C130.243 22.3699 130.004 23.0514 130.004 23.9373V30.5H128.103ZM139.85 30.7453C138.815 30.7453 137.881 30.4932 137.05 29.9889C136.232 29.4846 135.584 28.7963 135.107 27.924C134.63 27.0517 134.392 26.0772 134.392 25.0004C134.392 23.8964 134.63 22.9151 135.107 22.0564C135.584 21.1841 136.232 20.4959 137.05 19.9916C137.881 19.4873 138.815 19.2351 139.85 19.2351C140.764 19.2351 141.575 19.4327 142.283 19.828C142.992 20.2096 143.551 20.7276 143.96 21.3818L143.653 21.852V15.0236H145.575V30.5H143.714V28.1489L143.96 28.476C143.578 29.1984 143.019 29.7572 142.283 30.1524C141.561 30.5477 140.75 30.7453 139.85 30.7453ZM140.014 28.9053C140.709 28.9053 141.329 28.735 141.874 28.3942C142.42 28.0535 142.849 27.5901 143.162 27.004C143.49 26.4043 143.653 25.7364 143.653 25.0004C143.653 24.2508 143.49 23.583 143.162 22.9969C142.849 22.3972 142.42 21.927 141.874 21.5862C141.329 21.2455 140.709 21.0751 140.014 21.0751C139.333 21.0751 138.712 21.2523 138.154 21.6067C137.608 21.9474 137.179 22.4108 136.866 22.9969C136.552 23.5693 136.395 24.2372 136.395 25.0004C136.395 25.7364 136.552 26.4043 136.866 27.004C137.179 27.5901 137.608 28.0535 138.154 28.3942C138.699 28.735 139.319 28.9053 140.014 28.9053ZM148.109 30.5V19.4804H150.01V30.5H148.109ZM148.109 17.7222V15.2689H150.01V17.7222H148.109ZM152.552 30.5V19.4804H154.412V21.6271L154.105 21.4431C154.378 20.748 154.814 20.2096 155.414 19.828C156.027 19.4327 156.743 19.2351 157.56 19.2351C158.351 19.2351 159.053 19.4123 159.666 19.7667C160.293 20.121 160.784 20.6117 161.138 21.2387C161.506 21.8656 161.69 22.5744 161.69 23.3649V30.5H159.768V23.9782C159.768 23.3649 159.659 22.847 159.441 22.4244C159.223 22.0019 158.91 21.6748 158.501 21.4431C158.106 21.1978 157.649 21.0751 157.131 21.0751C156.613 21.0751 156.15 21.1978 155.741 21.4431C155.346 21.6748 155.032 22.0087 154.8 22.4449C154.569 22.8674 154.453 23.3785 154.453 23.9782V30.5H152.552ZM169.256 34.9978C168.479 34.9978 167.757 34.8751 167.089 34.6298C166.435 34.3844 165.869 34.0437 165.392 33.6076C164.929 33.185 164.575 32.6876 164.329 32.1151L166.108 31.2973C166.299 31.8153 166.66 32.2514 167.191 32.6058C167.737 32.9738 168.418 33.1578 169.236 33.1578C169.863 33.1578 170.428 33.0351 170.933 32.7898C171.451 32.5581 171.86 32.2037 172.159 31.7267C172.459 31.2633 172.609 30.6976 172.609 30.0298V27.556L172.957 27.924C172.575 28.6736 172.023 29.2461 171.301 29.6413C170.592 30.0366 169.808 30.2342 168.95 30.2342C167.914 30.2342 166.987 29.9957 166.169 29.5187C165.351 29.028 164.711 28.367 164.247 27.5356C163.784 26.6905 163.552 25.7569 163.552 24.7347C163.552 23.6988 163.784 22.7652 164.247 21.9338C164.711 21.1024 165.345 20.4481 166.149 19.9711C166.967 19.4804 167.893 19.2351 168.929 19.2351C169.788 19.2351 170.565 19.4327 171.26 19.828C171.969 20.2096 172.534 20.7412 172.957 21.4227L172.671 21.9338V19.4804H174.531V30.0298C174.531 30.9839 174.306 31.8357 173.856 32.5853C173.407 33.335 172.78 33.921 171.975 34.3436C171.185 34.7797 170.279 34.9978 169.256 34.9978ZM169.113 28.3942C169.767 28.3942 170.353 28.2307 170.871 27.9036C171.403 27.5764 171.825 27.1403 172.139 26.5951C172.452 26.0363 172.609 25.4161 172.609 24.7347C172.609 24.0668 172.452 23.4535 172.139 22.8947C171.825 22.3359 171.403 21.8929 170.871 21.5658C170.353 21.2387 169.767 21.0751 169.113 21.0751C168.445 21.0751 167.839 21.2387 167.294 21.5658C166.748 21.8929 166.319 22.3359 166.006 22.8947C165.706 23.4399 165.556 24.0532 165.556 24.7347C165.556 25.4161 165.706 26.0363 166.006 26.5951C166.319 27.1403 166.742 27.5764 167.273 27.9036C167.818 28.2307 168.432 28.3942 169.113 28.3942ZM177.847 30.5V28.0467H179.83V30.5H177.847ZM190.387 30.7453C189.31 30.7453 188.315 30.5545 187.402 30.1729C186.502 29.7776 185.712 29.2256 185.03 28.5169C184.363 27.8081 183.845 26.9767 183.477 26.0227C183.109 25.0686 182.925 24.0259 182.925 22.8947C182.925 21.7498 183.109 20.7003 183.477 19.7462C183.845 18.7921 184.363 17.9607 185.03 17.252C185.698 16.5433 186.489 15.9981 187.402 15.6164C188.315 15.2212 189.31 15.0236 190.387 15.0236C191.436 15.0236 192.377 15.2076 193.208 15.5756C194.053 15.9436 194.762 16.4206 195.334 17.0067C195.921 17.5927 196.336 18.2197 196.582 18.8876L194.742 19.7258C194.387 18.8807 193.835 18.1993 193.086 17.6813C192.336 17.1498 191.436 16.884 190.387 16.884C189.324 16.884 188.377 17.1361 187.545 17.6404C186.727 18.1447 186.087 18.8467 185.623 19.7462C185.16 20.6458 184.928 21.6953 184.928 22.8947C184.928 24.0804 185.16 25.1231 185.623 26.0227C186.087 26.9222 186.727 27.6241 187.545 28.1284C188.377 28.6327 189.324 28.8849 190.387 28.8849C191.436 28.8849 192.336 28.6259 193.086 28.108C193.835 27.5764 194.387 26.8881 194.742 26.0431L196.582 26.8813C196.336 27.5492 195.921 28.1761 195.334 28.7622C194.762 29.3483 194.053 29.8253 193.208 30.1933C192.377 30.5613 191.436 30.7453 190.387 30.7453ZM198.673 30.5V15.0236H200.574V30.5H198.673ZM207.021 30.7453C206.23 30.7453 205.514 30.5613 204.874 30.1933C204.247 29.8253 203.756 29.3142 203.402 28.66C203.061 27.9921 202.891 27.2289 202.891 26.3702V19.4804H204.792V26.1658C204.792 26.711 204.901 27.188 205.119 27.5969C205.351 28.0058 205.664 28.3261 206.06 28.5578C206.469 28.7895 206.932 28.9053 207.45 28.9053C207.968 28.9053 208.424 28.7895 208.82 28.5578C209.229 28.3261 209.542 27.9921 209.76 27.556C209.992 27.1199 210.108 26.6019 210.108 26.0022V19.4804H212.029V30.5H210.169V28.3533L210.476 28.5373C210.217 29.2324 209.774 29.7776 209.147 30.1729C208.533 30.5545 207.825 30.7453 207.021 30.7453ZM220.27 30.7453C219.384 30.7453 218.573 30.5477 217.837 30.1524C217.115 29.7572 216.556 29.1984 216.161 28.476L216.427 28.1489V30.5H214.566V15.0236H216.467V21.852L216.181 21.3818C216.59 20.7276 217.149 20.2096 217.858 19.828C218.566 19.4327 219.377 19.2351 220.291 19.2351C221.326 19.2351 222.253 19.4873 223.071 19.9916C223.902 20.4959 224.557 21.1841 225.034 22.0564C225.511 22.9151 225.749 23.8964 225.749 25.0004C225.749 26.0772 225.511 27.0517 225.034 27.924C224.557 28.7963 223.902 29.4846 223.071 29.9889C222.253 30.4932 221.32 30.7453 220.27 30.7453ZM220.127 28.9053C220.822 28.9053 221.442 28.735 221.987 28.3942C222.533 28.0535 222.955 27.5901 223.255 27.004C223.569 26.4043 223.725 25.7364 223.725 25.0004C223.725 24.2372 223.569 23.5693 223.255 22.9969C222.955 22.4108 222.533 21.9474 221.987 21.6067C221.442 21.2523 220.822 21.0751 220.127 21.0751C219.432 21.0751 218.805 21.2455 218.246 21.5862C217.701 21.927 217.265 22.3972 216.938 22.9969C216.624 23.583 216.467 24.2508 216.467 25.0004C216.467 25.7364 216.624 26.4043 216.938 27.004C217.265 27.5901 217.701 28.0535 218.246 28.3942C218.805 28.735 219.432 28.9053 220.127 28.9053Z" fill="#7B7B7B"/>
<defs>
<linearGradient id="paint0_linear_4088_45383" x1="36.1962" y1="34.0897" x2="20.3902" y2="39.5772" gradientUnits="userSpaceOnUse">
<stop stop-color="white" stop-opacity="0"/>
<stop offset="0.491633" stop-color="white"/>
<stop offset="1" stop-color="white"/>
</linearGradient>
<linearGradient id="paint1_linear_4088_45383" x1="38.7927" y1="28.2144" x2="13.8359" y2="36.8788" gradientUnits="userSpaceOnUse">
<stop stop-color="white"/>
<stop offset="0.136455" stop-color="white" stop-opacity="0"/>
<stop offset="1" stop-color="white"/>
</linearGradient>
<linearGradient id="paint2_linear_4088_45383" x1="40.8989" y1="23.5019" x2="9.28695" y2="34.4768" gradientUnits="userSpaceOnUse">
<stop stop-color="white"/>
<stop offset="0.218213" stop-color="white" stop-opacity="0"/>
<stop offset="1" stop-color="white"/>
</linearGradient>
<linearGradient id="paint3_linear_4088_45383" x1="41.0591" y1="18.5556" x2="6.11953" y2="30.6858" gradientUnits="userSpaceOnUse">
<stop stop-color="white"/>
<stop offset="0.352236" stop-color="white" stop-opacity="0"/>
<stop offset="1" stop-color="white"/>
</linearGradient>
<linearGradient id="paint4_linear_4088_45383" x1="4.64598" y1="26.5868" x2="39.5855" y2="14.4565" gradientUnits="userSpaceOnUse">
<stop stop-color="white"/>
<stop offset="0.508071" stop-color="white" stop-opacity="0"/>
<stop offset="1" stop-color="white"/>
</linearGradient>
<linearGradient id="paint5_linear_4088_45383" x1="4.79051" y1="21.6402" x2="36.4025" y2="10.6653" gradientUnits="userSpaceOnUse">
<stop stop-color="white"/>
<stop offset="0.356383" stop-color="white" stop-opacity="0"/>
<stop offset="1" stop-color="white"/>
</linearGradient>
<linearGradient id="paint6_linear_4088_45383" x1="6.88698" y1="16.9328" x2="31.8438" y2="8.26841" gradientUnits="userSpaceOnUse">
<stop stop-color="white"/>
<stop offset="0.162269" stop-color="white" stop-opacity="0"/>
<stop offset="1" stop-color="white"/>
</linearGradient>
<linearGradient id="paint7_linear_4088_45383" x1="10.6709" y1="11.5817" x2="26.4769" y2="6.09419" gradientUnits="userSpaceOnUse">
<stop stop-color="white" stop-opacity="0"/>
<stop offset="0.501807" stop-color="white"/>
<stop offset="1" stop-color="white"/>
</linearGradient>
</defs>
</svg>
