<svg xmlns="http://www.w3.org/2000/svg" version="1.1" viewBox="-5.0 -10.0 110.0 135.0">
 <path d="m86.484 49.855c-0.089844 23.98-19.59 43.426-43.594 43.426-1.7266 0-3.125-1.3984-3.125-3.125s1.3984-3.125 3.125-3.125c19.508 0 35.539-14.988 37.199-34.062h-21.73c-1.1797 0-2.2539-0.66406-2.7891-1.7109-0.53125-1.0508-0.42578-2.3125 0.26563-3.2617l17.402-23.758c0.19141-0.26562 0.42578-0.49609 0.69531-0.69141 1.0977-0.78906 2.582-0.78125 3.6719 0.015625 0.26562 0.19531 0.49609 0.42969 0.6875 0.69531 5.1523 7.1602 8.1914 15.941 8.1914 25.43v0.16797zm-72.969 0.14453v-0.3125c0-24.059 19.535-43.594 43.594-43.594 1.7266 0 3.125 1.3984 3.125 3.125s-1.3984 3.125-3.125 3.125c-19.664 0-35.801 15.23-37.242 34.531h21.773c1.1797 0 2.2539 0.66406 2.7891 1.7109 0.53125 1.0508 0.42578 2.3125-0.26563 3.2617l-17.23 23.523c-0.19141 0.26172-0.41797 0.48828-0.67578 0.67969-1.0977 0.80078-2.5938 0.80078-3.6914-0.003906-0.26172-0.19141-0.48828-0.41797-0.67969-0.67969-5.1992-7.1211-8.3008-15.875-8.3711-25.344z" fill-rule="evenodd"/></svg>