<svg width="498" height="520" viewBox="0 0 498 520" fill="none" xmlns="http://www.w3.org/2000/svg">
<path d="M34 37L41.7457 45.5002L34 37ZM460.5 22.9867L465.63 12.6942L460.5 22.9867ZM362.023 223.772C361.621 230.11 366.433 235.575 372.772 235.977L476.064 242.53C482.403 242.932 487.867 238.12 488.269 231.781C488.671 225.443 483.859 219.979 477.52 219.576L385.705 213.751L391.53 121.936C391.932 115.597 387.12 110.133 380.781 109.731C374.443 109.329 368.979 114.141 368.576 120.48L362.023 223.772ZM24.2421 165.586C27.6031 170.975 34.6965 172.619 40.0856 169.258C45.4747 165.897 47.1188 158.804 43.7579 153.414L24.2421 165.586ZM41.7457 45.5002C59.1272 29.6615 75.9831 24.9312 92.0164 27.1465C108.591 29.4366 126.098 39.406 143.606 56.5627C178.681 90.9318 210.224 150.714 230.204 216.467C250.167 282.163 257.968 351.791 247.375 405.223C242.095 431.862 232.397 453.717 218.129 469.218C204.082 484.481 184.989 494.277 159.224 496.021L160.776 518.968C192.136 516.846 216.826 504.597 235.053 484.794C253.06 465.23 264.127 439 269.936 409.696C281.524 351.242 272.804 277.549 252.211 209.779C231.635 142.066 198.587 78.2361 159.704 40.1349C140.234 21.0565 118.42 7.57619 95.1644 4.36299C71.3682 1.07507 47.8861 8.78793 26.2543 28.4998L41.7457 45.5002ZM159.224 496.021C133.123 497.787 117.337 490.739 107.909 479.609C98.0761 468 93.1278 449.615 94.0245 424.762C95.8182 375.053 120.783 306.633 159.777 239.577C198.645 172.736 250.475 108.934 304.294 68.131C358.58 26.973 411.585 11.457 455.37 33.2792L465.63 12.6942C409.779 -15.141 346.841 7.01051 290.398 49.803C233.488 92.9502 179.804 159.382 139.894 228.015C100.109 296.433 73.0315 368.728 71.0395 423.933C70.0435 451.536 75.2666 476.657 90.3594 494.475C105.857 512.771 129.752 521.068 160.776 518.968L159.224 496.021ZM455.37 33.2792C464.74 37.9491 469.709 43.535 472.251 49.2666C474.858 55.1462 475.474 62.4576 473.807 71.4101C470.394 89.744 458.018 111.778 441.714 133.833C425.636 155.583 406.692 176.102 391.662 191.265C384.169 198.824 377.696 205.004 373.108 209.283C370.815 211.422 368.996 213.084 367.758 214.204C367.139 214.764 366.665 215.188 366.351 215.469C366.194 215.609 366.077 215.713 366.001 215.78C365.963 215.814 365.935 215.838 365.918 215.853C365.91 215.861 365.904 215.866 365.901 215.868C365.899 215.87 365.899 215.87 365.898 215.871C365.898 215.871 365.899 215.87 373.5 224.5C381.101 233.13 381.103 233.128 381.106 233.126C381.108 233.124 381.112 233.121 381.115 233.117C381.123 233.111 381.133 233.101 381.146 233.09C381.172 233.067 381.209 233.035 381.256 232.993C381.35 232.909 381.486 232.789 381.662 232.631C382.014 232.317 382.527 231.858 383.186 231.261C384.505 230.069 386.412 228.327 388.797 226.102C393.566 221.653 400.258 215.263 407.997 207.457C423.429 191.888 443.216 170.492 460.209 147.505C476.976 124.825 492.01 99.3011 496.419 75.6197C498.663 63.5646 498.293 51.2538 493.276 39.9423C488.194 28.4827 478.901 19.3083 465.63 12.6942L455.37 33.2792ZM26.2543 28.4998C-2.7295 54.911 -1.91863 90.9424 4.55704 117.61C7.84175 131.137 12.7338 143.051 16.7609 151.534C18.784 155.795 20.613 159.241 21.9533 161.649C22.6241 162.855 23.1742 163.803 23.5674 164.468C23.7641 164.8 23.9216 165.062 24.0355 165.249C24.0925 165.343 24.1386 165.418 24.1732 165.474C24.1905 165.502 24.205 165.526 24.2165 165.544C24.2222 165.554 24.2273 165.562 24.2315 165.569C24.2337 165.572 24.2363 165.576 24.2374 165.578C24.2399 165.582 24.2421 165.586 34 159.5C43.7579 153.414 43.7598 153.417 43.7615 153.42C43.7618 153.421 43.7634 153.423 43.764 153.424C43.7653 153.426 43.7659 153.427 43.7658 153.427C43.7656 153.427 43.7625 153.422 43.7566 153.412C43.7447 153.393 43.7217 153.355 43.6879 153.3C43.6205 153.189 43.5104 153.007 43.3622 152.756C43.0656 152.255 42.6168 151.482 42.0507 150.465C40.9172 148.428 39.321 145.425 37.5383 141.67C33.9539 134.12 29.712 123.732 26.9075 112.183C21.2047 88.6978 22.0156 63.4792 41.7457 45.5002L26.2543 28.4998Z" fill="white"/>
</svg>
