<svg width="1951" height="600" viewBox="0 0 1951 600" fill="none" xmlns="http://www.w3.org/2000/svg">
<path d="M34 37L41.7457 45.5002L34 37ZM460.5 22.9867L465.63 12.6942L460.5 22.9867ZM373.5 224.5L500.692 186.35L404.057 95.273L373.5 224.5ZM24.2421 165.586C27.6031 170.975 34.6965 172.619 40.0856 169.258C45.4747 165.897 47.1188 158.804 43.7579 153.414L24.2421 165.586ZM41.7457 45.5002C59.1272 29.6615 75.9831 24.9312 92.0164 27.1465C108.591 29.4366 126.098 39.406 143.606 56.5627C178.681 90.9318 210.224 150.714 230.204 216.467C250.167 282.163 257.968 351.791 247.375 405.223C242.095 431.862 232.397 453.717 218.129 469.218C204.082 484.481 184.989 494.277 159.224 496.021L160.776 518.968C192.136 516.846 216.826 504.597 235.053 484.794C253.06 465.23 264.127 439 269.936 409.696C281.524 351.242 272.804 277.549 252.211 209.779C231.635 142.066 198.587 78.2361 159.704 40.1349C140.234 21.0565 118.42 7.57619 95.1644 4.36299C71.3682 1.07507 47.8861 8.78793 26.2543 28.4998L41.7457 45.5002ZM159.224 496.021C133.123 497.787 117.337 490.739 107.909 479.609C98.0761 468 93.1278 449.615 94.0245 424.762C95.8182 375.053 120.783 306.633 159.777 239.577C198.645 172.736 250.475 108.934 304.294 68.131C358.58 26.973 411.585 11.457 455.37 33.2792L465.63 12.6942C409.779 -15.141 346.841 7.01051 290.398 49.803C233.488 92.9502 179.804 159.382 139.894 228.015C100.109 296.433 73.0315 368.728 71.0395 423.933C70.0435 451.536 75.2666 476.657 90.3594 494.475C105.857 512.771 129.752 521.068 160.776 518.968L159.224 496.021ZM455.37 33.2792C465.312 38.2339 470.331 44.2303 472.732 50.4246C475.226 56.8614 475.451 64.965 473.063 74.889C468.203 95.0891 453.466 119.016 435.43 142.095L453.552 156.257C472.001 132.651 489.357 105.49 495.425 80.2692C498.501 67.4828 498.898 54.2931 494.177 42.1127C489.362 29.6899 479.778 19.7453 465.63 12.6942L455.37 33.2792ZM26.2543 28.4998C-2.7295 54.911 -1.91863 90.9424 4.55704 117.61C7.84175 131.137 12.7338 143.051 16.7609 151.534C18.784 155.795 20.613 159.241 21.9533 161.649C22.6241 162.855 23.1742 163.803 23.5674 164.468C23.7641 164.8 23.9216 165.062 24.0355 165.249C24.0925 165.343 24.1386 165.418 24.1732 165.474C24.1905 165.502 24.205 165.526 24.2165 165.544C24.2222 165.554 24.2273 165.562 24.2315 165.569C24.2337 165.572 24.2363 165.576 24.2374 165.578C24.2399 165.582 24.2421 165.586 34 159.5C43.7579 153.414 43.7598 153.417 43.7615 153.42C43.7618 153.421 43.7634 153.423 43.764 153.424C43.7653 153.426 43.7659 153.427 43.7658 153.427C43.7656 153.427 43.7625 153.422 43.7566 153.412C43.7447 153.393 43.7217 153.355 43.6879 153.3C43.6205 153.189 43.5104 153.007 43.3622 152.756C43.0656 152.255 42.6168 151.482 42.0507 150.465C40.9172 148.428 39.321 145.425 37.5383 141.67C33.9539 134.12 29.712 123.732 26.9075 112.183C21.2047 88.6978 22.0156 63.4792 41.7457 45.5002L26.2543 28.4998Z" fill="white"/>
<path d="M474.422 515.589C452.822 515.589 433.622 510.656 416.822 500.789C400.288 490.656 387.355 477.056 378.022 459.989C368.688 442.656 364.022 423.322 364.022 401.989C364.022 380.122 368.688 360.789 378.022 343.989C387.622 327.189 400.422 313.989 416.422 304.389C432.422 294.522 450.555 289.589 470.822 289.589C487.088 289.589 501.622 292.389 514.422 297.989C527.222 303.589 538.022 311.322 546.822 321.189C555.622 330.789 562.288 341.856 566.822 354.389C571.622 366.922 574.022 380.256 574.022 394.389C574.022 397.856 573.888 401.456 573.622 405.189C573.355 408.922 572.822 412.389 572.022 415.589H399.622V379.589H546.422L524.822 395.989C527.488 382.922 526.555 371.322 522.022 361.189C517.755 350.789 511.088 342.656 502.022 336.789C493.222 330.656 482.822 327.589 470.822 327.589C458.822 327.589 448.155 330.656 438.822 336.789C429.488 342.656 422.288 351.189 417.222 362.389C412.155 373.322 410.155 386.656 411.222 402.389C409.888 417.056 411.888 429.856 417.222 440.789C422.822 451.722 430.555 460.256 440.422 466.389C450.555 472.522 462.022 475.589 474.822 475.589C487.888 475.589 498.955 472.656 508.022 466.789C517.355 460.922 524.688 453.322 530.022 443.989L566.822 461.989C562.555 472.122 555.888 481.322 546.822 489.589C538.022 497.589 527.355 503.989 514.822 508.789C502.555 513.322 489.088 515.589 474.422 515.589ZM704.934 515.589C683.334 515.589 664.134 510.656 647.334 500.789C630.801 490.656 617.601 477.056 607.734 459.989C598.134 442.922 593.334 423.589 593.334 401.989C593.334 380.656 598.134 361.456 607.734 344.389C617.334 327.322 630.534 313.989 647.334 304.389C664.134 294.522 683.334 289.589 704.934 289.589C719.601 289.589 733.334 292.256 746.134 297.589C758.934 302.656 770.001 309.722 779.334 318.789C788.934 327.856 796.001 338.389 800.534 350.389L760.934 368.789C756.401 357.589 749.067 348.656 738.934 341.989C729.067 335.056 717.734 331.589 704.934 331.589C692.667 331.589 681.601 334.656 671.734 340.789C662.134 346.656 654.534 355.056 648.934 365.989C643.334 376.656 640.534 388.789 640.534 402.389C640.534 415.989 643.334 428.256 648.934 439.189C654.534 449.856 662.134 458.256 671.734 464.389C681.601 470.522 692.667 473.589 704.934 473.589C718.001 473.589 729.334 470.256 738.934 463.589C748.801 456.656 756.134 447.456 760.934 435.989L800.534 454.789C796.267 466.256 789.334 476.656 779.734 485.989C770.401 495.056 759.334 502.256 746.534 507.589C733.734 512.922 719.867 515.589 704.934 515.589ZM905.912 515.589C889.645 515.589 875.379 511.989 863.112 504.789C850.845 497.322 841.245 487.056 834.312 473.989C827.645 460.656 824.312 445.322 824.312 427.989V294.389H869.512V423.989C869.512 433.856 871.512 442.522 875.512 449.989C879.512 457.456 885.112 463.322 892.312 467.589C899.512 471.589 907.779 473.589 917.112 473.589C926.712 473.589 935.112 471.456 942.312 467.189C949.512 462.922 955.112 456.922 959.112 449.189C963.379 441.456 965.512 432.389 965.512 421.989V294.389H1010.31V510.789H967.512V468.389L972.312 473.989C967.245 487.322 958.845 497.589 947.112 504.789C935.379 511.989 921.645 515.589 905.912 515.589ZM1047.09 510.789V294.389H1090.29V337.989L1086.29 331.589C1091.09 317.456 1098.82 307.322 1109.49 301.189C1120.15 294.789 1132.95 291.589 1147.89 291.589H1161.09V332.789H1142.29C1127.35 332.789 1115.22 337.456 1105.89 346.789C1096.82 355.856 1092.29 368.922 1092.29 385.989V510.789H1047.09ZM1176.01 510.789V294.389H1219.21V337.989L1215.21 331.589C1220.01 317.456 1227.74 307.322 1238.41 301.189C1249.08 294.789 1261.88 291.589 1276.81 291.589H1290.01V332.789H1271.21C1256.28 332.789 1244.14 337.456 1234.81 346.789C1225.74 355.856 1221.21 368.922 1221.21 385.989V510.789H1176.01ZM1309.33 510.789V212.789H1417.73C1437.73 212.789 1455.33 216.522 1470.53 223.989C1486 231.189 1498 241.856 1506.53 255.989C1515.06 269.856 1519.33 286.522 1519.33 305.989C1519.33 325.189 1514.93 341.722 1506.13 355.589C1497.6 369.456 1485.73 380.122 1470.53 387.589C1455.33 395.056 1437.73 398.789 1417.73 398.789H1356.53V510.789H1309.33ZM1356.53 356.789H1418.93C1429.6 356.789 1438.93 354.656 1446.93 350.389C1454.93 346.122 1461.2 340.256 1465.73 332.789C1470.26 325.056 1472.53 315.989 1472.53 305.589C1472.53 295.189 1470.26 286.256 1465.73 278.789C1461.2 271.056 1454.93 265.189 1446.93 261.189C1438.93 256.922 1429.6 254.789 1418.93 254.789H1356.53V356.789ZM1598.26 515.589C1583.6 515.589 1570.66 513.056 1559.46 507.989C1548.53 502.656 1540 495.456 1533.86 486.389C1527.73 477.056 1524.66 466.122 1524.66 453.589C1524.66 441.856 1527.2 431.322 1532.26 421.989C1537.6 412.656 1545.73 404.789 1556.66 398.389C1567.6 391.989 1581.33 387.456 1597.86 384.789L1673.06 372.389V407.989L1606.66 419.589C1594.66 421.722 1585.86 425.589 1580.26 431.189C1574.66 436.522 1571.86 443.456 1571.86 451.989C1571.86 460.256 1574.93 467.056 1581.06 472.389C1587.46 477.456 1595.6 479.989 1605.46 479.989C1617.73 479.989 1628.4 477.322 1637.46 471.989C1646.8 466.656 1654 459.589 1659.06 450.789C1664.13 441.722 1666.66 431.722 1666.66 420.789V365.189C1666.66 354.522 1662.66 345.856 1654.66 339.189C1646.93 332.256 1636.53 328.789 1623.46 328.789C1611.46 328.789 1600.93 331.989 1591.86 338.389C1583.06 344.522 1576.53 352.522 1572.26 362.389L1534.66 343.589C1538.66 332.922 1545.2 323.589 1554.26 315.589C1563.33 307.322 1573.86 300.922 1585.86 296.389C1598.13 291.856 1611.06 289.589 1624.66 289.589C1641.73 289.589 1656.8 292.789 1669.86 299.189C1683.2 305.589 1693.46 314.522 1700.66 325.989C1708.13 337.189 1711.86 350.256 1711.86 365.189V510.789H1668.66V471.589L1677.86 472.789C1672.8 481.589 1666.26 489.189 1658.26 495.589C1650.53 501.989 1641.6 506.922 1631.46 510.389C1621.6 513.856 1610.53 515.589 1598.26 515.589ZM1767.91 599.189C1762.58 599.189 1757.25 598.656 1751.91 597.589C1746.85 596.789 1742.18 595.456 1737.91 593.589V554.789C1741.11 555.589 1744.98 556.256 1749.51 556.789C1754.05 557.589 1758.45 557.989 1762.71 557.989C1775.25 557.989 1784.45 555.189 1790.31 549.589C1796.45 544.256 1801.91 535.856 1806.71 524.389L1821.11 491.589L1820.31 529.589L1726.71 294.389H1775.11L1844.31 474.789H1827.91L1896.71 294.389H1945.51L1849.91 534.389C1844.85 547.189 1838.45 558.389 1830.71 567.989C1823.25 577.856 1814.31 585.456 1803.91 590.789C1793.78 596.389 1781.78 599.189 1767.91 599.189Z" fill="white"/>
</svg>
