<svg xmlns="http://www.w3.org/2000/svg" viewBox="0 0 64 80" x="0px" y="0px"><g><path d="M31,29h2a1,1,0,0,1,1,1h2a3,3,0,0,0-3-3V26H31v1a3,3,0,0,0,0,6h2a1,1,0,0,1,0,2H31a1,1,0,0,1-1-1H28a3,3,0,0,0,3,3v1h2V37a3,3,0,0,0,0-6H31a1,1,0,0,1,0-2Z"/><path d="M61.124,26.008l-5.016-.626a24.717,24.717,0,0,0-2.38-5.755l3.1-3.983a1,1,0,0,0-.082-1.321l-7.07-7.07a1,1,0,0,0-1.321-.082l-3.983,3.1a24.717,24.717,0,0,0-5.755-2.38l-.626-5.016A1,1,0,0,0,37,2H27a1,1,0,0,0-.992.876l-.626,5.016a24.717,24.717,0,0,0-5.755,2.38l-3.983-3.1a1,1,0,0,0-1.321.082l-7.07,7.07a1,1,0,0,0-.082,1.321l3.1,3.983a24.717,24.717,0,0,0-2.38,5.755l-5.016.626A1,1,0,0,0,2,27V37a1,1,0,0,0,.876.992l5.016.626a24.717,24.717,0,0,0,2.38,5.755l-3.1,3.983a1,1,0,0,0,.082,1.321l7.07,7.07a1,1,0,0,0,1.321.082l3.983-3.1A24.5,24.5,0,0,0,25,55.979V57a5.015,5.015,0,0,0,5,5h4a5.016,5.016,0,0,0,5-5V55.979a24.5,24.5,0,0,0,5.373-2.252l3.983,3.1a1,1,0,0,0,1.321-.082l7.07-7.07a1,1,0,0,0,.082-1.321l-3.1-3.983a24.717,24.717,0,0,0,2.38-5.755l5.016-.626A1,1,0,0,0,62,37V27A1,1,0,0,0,61.124,26.008ZM38,48.7V49H26v-.242a4.969,4.969,0,0,0-2.2-4.2,15,15,0,1,1,16.379.02A4.87,4.87,0,0,0,38,48.7ZM24.306,51.288A.957.957,0,0,1,25,51H39a1,1,0,0,1,1,1,.974.974,0,0,1-.306.712A.957.957,0,0,1,39,53H25a1,1,0,0,1-1-1A.974.974,0,0,1,24.306,51.288ZM36.4,58.8A2.979,2.979,0,0,1,34,60H30a3.014,3.014,0,0,1-3-3V55H37v2A2.987,2.987,0,0,1,36.4,58.8ZM60,36.117l-4.814.6a1,1,0,0,0-.847.754,22.713,22.713,0,0,1-2.672,6.457,1,1,0,0,0,.064,1.135l2.977,3.824-5.82,5.82-3.824-2.977a1,1,0,0,0-1.135-.064,22.094,22.094,0,0,1-2.035,1.083A2.965,2.965,0,0,0,42,52a3,3,0,0,0-2-2.816V48.7a2.922,2.922,0,0,1,1.265-2.448A17,17,0,1,0,22.7,46.234,3.019,3.019,0,0,1,24,48.758v.423a2.85,2.85,0,0,0-1.108.693,2.906,2.906,0,0,0-.785,2.877,22.5,22.5,0,0,1-2.036-1.084,1,1,0,0,0-1.135.064l-3.824,2.977-5.82-5.82,2.977-3.824a1,1,0,0,0,.064-1.135,22.713,22.713,0,0,1-2.672-6.457,1,1,0,0,0-.847-.754L4,36.117V27.883l4.814-.6a1,1,0,0,0,.847-.754,22.725,22.725,0,0,1,2.672-6.457,1,1,0,0,0-.064-1.135L9.292,15.112l5.82-5.82,3.824,2.977a1,1,0,0,0,1.135.064,22.725,22.725,0,0,1,6.457-2.672,1,1,0,0,0,.754-.847L27.883,4h8.234l.6,4.814a1,1,0,0,0,.754.847,22.725,22.725,0,0,1,6.457,2.672,1,1,0,0,0,1.135-.064l3.824-2.977,5.82,5.82-2.977,3.824a1,1,0,0,0-.064,1.135,22.725,22.725,0,0,1,2.672,6.457,1,1,0,0,0,.847.754l4.814.6Z"/><rect x="31" y="10" width="2" height="2"/><rect x="16.151" y="16.151" width="2" height="2" transform="translate(-7.104 17.151) rotate(-45)"/><rect x="10" y="31" width="2" height="2"/><rect x="16.151" y="45.849" width="2" height="2" transform="translate(-28.104 25.849) rotate(-45)"/><rect x="45.849" y="45.849" width="2" height="2" transform="translate(-19.406 46.849) rotate(-45)"/><rect x="52" y="31" width="2" height="2"/><rect x="45.849" y="16.151" width="2" height="2" transform="translate(1.594 38.151) rotate(-45)"/><rect x="31" y="20" width="2" height="2"/><rect x="25.5" y="21.474" width="2" height="2" transform="translate(-7.687 16.262) rotate(-30.002)"/><rect x="21.474" y="25.5" width="2" height="2" transform="translate(-11.713 32.712) rotate(-59.998)"/><rect x="20" y="31" width="2" height="2"/><rect x="21.474" y="36.5" width="2" height="2" transform="translate(-15.737 16.257) rotate(-29.995)"/><rect x="25.5" y="40.526" width="2" height="2" transform="translate(-22.712 43.717) rotate(-60.005)"/><rect x="31" y="42" width="2" height="2"/><rect x="36.5" y="40.526" width="2" height="2" transform="translate(-15.74 24.315) rotate(-30.002)"/><rect x="40.526" y="36.5" width="2" height="2" transform="translate(-11.713 54.711) rotate(-59.998)"/><rect x="42" y="31" width="2" height="2"/><rect x="40.526" y="25.5" width="2" height="2" transform="translate(-7.686 24.309) rotate(-29.995)"/><rect x="36.5" y="21.474" width="2" height="2" transform="translate(-0.711 43.716) rotate(-60.005)"/></g></svg>