<svg xmlns="http://www.w3.org/2000/svg" version="1.1" xmlns:xlink="http://www.w3.org/1999/xlink" xmlns:svgjs="http://svgjs.dev/svgjs" width="600" height="600"><svg width="600" height="600" viewBox="0 0 600 600" fill="none" xmlns="http://www.w3.org/2000/svg">
<path d="M34 37L41.7457 45.5002L34 37ZM460.5 22.9867L465.63 12.6942L460.5 22.9867ZM373.5 224.5L500.692 186.35L404.057 95.273L373.5 224.5ZM24.2421 165.586C27.6031 170.975 34.6965 172.619 40.0856 169.258C45.4747 165.897 47.1188 158.804 43.7579 153.414L24.2421 165.586ZM41.7457 45.5002C59.1272 29.6615 75.9831 24.9312 92.0164 27.1465C108.591 29.4366 126.098 39.406 143.606 56.5627C178.681 90.9318 210.224 150.714 230.204 216.467C250.167 282.163 257.968 351.791 247.375 405.223C242.095 431.862 232.397 453.717 218.129 469.218C204.082 484.481 184.989 494.277 159.224 496.021L160.776 518.968C192.136 516.846 216.826 504.597 235.053 484.794C253.06 465.23 264.127 439 269.936 409.696C281.524 351.242 272.804 277.549 252.211 209.779C231.635 142.066 198.587 78.2361 159.704 40.1349C140.234 21.0565 118.42 7.57619 95.1644 4.36299C71.3682 1.07507 47.8861 8.78793 26.2543 28.4998L41.7457 45.5002ZM159.224 496.021C133.123 497.787 117.337 490.739 107.909 479.609C98.0761 468 93.1278 449.615 94.0245 424.762C95.8182 375.053 120.783 306.633 159.777 239.577C198.645 172.736 250.475 108.934 304.294 68.131C358.58 26.973 411.585 11.457 455.37 33.2792L465.63 12.6942C409.779 -15.141 346.841 7.01051 290.398 49.803C233.488 92.9502 179.804 159.382 139.894 228.015C100.109 296.433 73.0315 368.728 71.0395 423.933C70.0435 451.536 75.2666 476.657 90.3594 494.475C105.857 512.771 129.752 521.068 160.776 518.968L159.224 496.021ZM455.37 33.2792C465.312 38.2339 470.331 44.2303 472.732 50.4246C475.226 56.8614 475.451 64.965 473.063 74.889C468.203 95.0891 453.466 119.016 435.43 142.095L453.552 156.257C472.001 132.651 489.357 105.49 495.425 80.2692C498.501 67.4828 498.898 54.2931 494.177 42.1127C489.362 29.6899 479.778 19.7453 465.63 12.6942L455.37 33.2792ZM26.2543 28.4998C-2.7295 54.911 -1.91863 90.9424 4.55704 117.61C7.84175 131.137 12.7338 143.051 16.7609 151.534C18.784 155.795 20.613 159.241 21.9533 161.649C22.6241 162.855 23.1742 163.803 23.5674 164.468C23.7641 164.8 23.9216 165.062 24.0355 165.249C24.0925 165.343 24.1386 165.418 24.1732 165.474C24.1905 165.502 24.205 165.526 24.2165 165.544C24.2222 165.554 24.2273 165.562 24.2315 165.569C24.2337 165.572 24.2363 165.576 24.2374 165.578C24.2399 165.582 24.2421 165.586 34 159.5C43.7579 153.414 43.7598 153.417 43.7615 153.42C43.7618 153.421 43.7634 153.423 43.764 153.424C43.7653 153.426 43.7659 153.427 43.7658 153.427C43.7656 153.427 43.7625 153.422 43.7566 153.412C43.7447 153.393 43.7217 153.355 43.6879 153.3C43.6205 153.189 43.5104 153.007 43.3622 152.756C43.0656 152.255 42.6168 151.482 42.0507 150.465C40.9172 148.428 39.321 145.425 37.5383 141.67C33.9539 134.12 29.712 123.732 26.9075 112.183C21.2047 88.6978 22.0156 63.4792 41.7457 45.5002L26.2543 28.4998Z" fill="white" data-darkreader-inline-fill="" style="--darkreader-inline-fill: var(--darkreader-background-ffffff, #181a1b);"></path>
</svg><style>@media (prefers-color-scheme: light) { :root { filter: contrast(1) brightness(0.1); } }
@media (prefers-color-scheme: dark) { :root { filter: none; } }
</style></svg>